<svg version="1.1" id="Layer_1" xmlns="http://www.w3.org/2000/svg" xmlns:xlink="http://www.w3.org/1999/xlink" x="0px" y="0px"
	 width="100%" viewBox="0 0 1600 1136" enable-background="new 0 0 1600 1136" xml:space="preserve">
<path fill="#FE6A01" opacity="1.000000" stroke="none" 
	d="
M1600.000000,1137.000000 
	C1067.048706,1137.000000 534.097534,1137.000000 1.073149,1137.000000 
	C1.073149,758.416748 1.073149,379.833496 1.073149,1.000000 
	C533.701538,1.000000 1066.403198,1.000000 1599.548584,1.453622 
	C1599.994995,380.271484 1599.997559,758.635742 1600.000000,1137.000000 
M469.598969,821.664001 
	C468.059570,820.144348 466.520142,818.624756 464.899536,817.110107 
	C464.899536,817.110107 464.890778,817.029236 464.815186,816.351685 
	C460.897003,813.913818 456.978790,811.475952 452.968506,809.065186 
	C452.968506,809.065186 452.939636,808.973633 452.810059,808.285400 
	C449.235779,804.614502 444.918701,803.719055 439.177643,804.910339 
	C437.152130,804.725037 435.126617,804.539795 432.634125,803.813049 
	C425.502563,802.436035 418.892487,803.349487 413.029510,808.004822 
	C413.029510,808.004822 413.177673,808.245361 412.574890,808.222168 
	C412.105682,808.565491 411.636475,808.908813 411.111725,809.085327 
	C411.111725,809.085327 411.205566,809.234009 410.451569,809.143555 
	C407.833374,810.067810 405.215179,810.992065 401.979340,812.134277 
	C401.644836,809.084412 401.114960,806.328430 401.080688,803.566345 
	C400.958801,793.741516 401.178589,783.909180 400.865509,774.092468 
	C400.788544,771.678955 399.674011,768.933411 398.180420,767.002747 
	C394.595581,762.368774 389.470093,763.746277 384.798279,764.738953 
	C380.584015,765.634338 379.225037,769.070068 378.887634,772.995361 
	C378.617493,776.138123 378.138275,779.281433 378.131226,782.425354 
	C378.070068,809.738647 378.061066,837.052185 378.108154,864.365540 
	C378.131073,877.656860 378.244171,890.948792 378.442963,904.238647 
	C378.524689,909.700684 385.970795,913.802185 391.690826,911.111572 
	C392.570038,910.888184 393.449219,910.664795 395.109802,910.661743 
	C401.098114,909.761963 400.938629,904.935974 400.992126,900.747375 
	C401.175049,886.431458 401.131866,872.111023 401.023712,857.793518 
	C400.933807,845.889404 406.137238,836.679321 415.734985,830.245667 
	C427.371887,822.445068 445.167999,824.741638 453.227753,837.284973 
	C455.883575,841.418274 458.141083,845.807495 460.789368,850.797119 
	C460.794037,851.540527 460.798706,852.283875 460.408875,853.740540 
	C460.306488,870.513916 460.040771,887.288757 460.193481,904.059814 
	C460.244446,909.656250 464.563324,912.436584 470.802185,911.146362 
	C471.885529,911.147156 472.968842,911.147949 474.598877,911.483887 
	C481.225739,910.664978 483.584900,905.434570 480.971130,896.091309 
	C481.022156,883.380005 481.073181,870.668701 481.551727,857.271667 
	C482.570740,849.047424 481.775665,841.202637 476.662537,834.216248 
	C476.662537,834.216248 476.682434,834.140137 476.859070,833.390503 
	C474.425781,829.743347 471.992523,826.096252 469.489471,822.432251 
	C469.489471,822.432251 469.489288,822.360535 469.598969,821.664001 
M1137.384766,397.925629 
	C1130.102417,427.912048 1133.747192,456.204193 1149.318970,483.155365 
	C1178.995239,534.518494 1248.613159,552.570312 1299.078613,521.308960 
	C1334.907959,499.114075 1353.097412,466.631683 1353.316895,424.489075 
	C1353.571167,375.678833 1353.387939,326.866241 1353.367188,278.054688 
	C1353.364624,271.893890 1353.549194,265.702393 1353.015503,259.580200 
	C1352.345581,251.899384 1348.564941,245.515610 1342.181030,241.296951 
	C1333.531372,235.581009 1324.037231,235.279724 1315.188599,240.469330 
	C1307.030518,245.253860 1303.176392,253.177216 1303.155396,262.697052 
	C1303.107666,284.187286 1303.161743,305.677765 1303.174194,327.168121 
	C1303.175415,329.249634 1303.174438,331.331146 1303.174438,334.349213 
	C1300.324707,332.845123 1298.470459,331.854980 1296.606201,330.884094 
	C1257.100342,310.309845 1218.418945,311.713531 1181.247559,336.310730 
	C1159.187134,350.908691 1145.053833,371.763336 1137.384766,397.925629 
M670.513367,347.018097 
	C653.237000,363.875488 641.715576,383.826416 637.627991,407.834167 
	C629.834595,453.607117 650.517822,498.355560 690.816895,521.642700 
	C720.399536,538.737305 751.378662,542.061096 783.310425,528.681580 
	C791.069336,525.430542 798.245667,520.789062 805.990662,516.625244 
	C806.870789,518.173340 807.543579,520.169434 808.868713,521.530396 
	C812.397522,525.154358 815.637939,529.760010 820.006287,531.741516 
	C836.778259,539.349365 855.194946,526.899353 855.259399,508.354462 
	C855.357849,480.034943 855.571594,451.711731 855.243896,423.395752 
	C854.735046,379.421051 826.925110,339.123779 784.365173,323.876190 
	C742.620972,308.920807 704.390869,316.880127 670.513367,347.018097 
M1049.954834,664.482910 
	C1049.679932,670.297058 1049.807129,676.163086 1049.064697,681.916931 
	C1044.261963,719.143494 1004.679016,739.981567 971.542786,722.346558 
	C951.884094,711.884277 943.469971,694.117065 943.252502,672.429565 
	C942.965271,643.778442 943.279236,615.121826 943.165894,586.468262 
	C943.106384,571.427490 933.094666,561.171082 918.811890,561.069092 
	C904.155212,560.964539 893.023560,571.641052 892.969543,586.354980 
	C892.860107,616.174072 892.703979,645.997742 893.085876,675.812927 
	C893.804260,731.904785 939.184570,776.685974 992.527344,778.600647 
	C1048.131470,780.596558 1098.011719,737.347778 1099.876465,677.874695 
	C1100.836792,647.251526 1100.150757,616.573059 1099.935303,585.921448 
	C1099.908325,582.077026 1098.883789,577.905701 1097.158447,574.469849 
	C1092.057251,564.311096 1079.478027,558.848877 1068.844604,561.564636 
	C1057.136108,564.554993 1050.096558,573.533630 1050.043823,586.022339 
	C1049.934814,611.843872 1049.975586,637.666016 1049.954834,664.482910 
M895.980530,521.351685 
	C901.472717,530.438232 909.635864,534.941040 920.137085,534.511841 
	C933.340210,533.972168 942.965210,523.796753 943.052246,510.233734 
	C943.234070,481.911926 943.101868,453.588257 943.189331,425.265594 
	C943.201599,421.285187 943.434937,417.260406 944.056702,413.333923 
	C950.042847,375.530853 985.486816,358.358917 1017.323486,371.349304 
	C1039.744263,380.497681 1049.320190,399.328400 1049.829956,422.566742 
	C1050.465576,451.542389 1049.953735,480.542328 1050.028076,509.531525 
	C1050.065186,523.960022 1060.554443,534.732849 1074.287964,534.686890 
	C1089.019531,534.637695 1100.022461,523.760803 1100.030029,509.180817 
	C1100.044800,480.191406 1099.949341,451.201721 1100.059814,422.212738 
	C1100.127197,404.522644 1096.030029,387.930542 1087.967163,372.222931 
	C1064.231323,325.982361 1007.756592,304.571136 959.401184,323.538513 
	C920.155945,338.932404 893.615051,376.881836 893.087891,419.188324 
	C892.714233,449.172729 892.883545,479.165680 893.073853,509.153137 
	C893.098328,513.011719 894.708740,516.860352 895.980530,521.351685 
M432.111267,373.231964 
	C438.087128,377.555969 444.443146,380.550537 452.108673,378.898193 
	C465.349274,376.044128 472.996307,361.624298 468.376740,348.501495 
	C464.750061,338.199127 457.239258,331.282898 447.780060,327.129333 
	C417.012268,313.619080 385.691589,311.885101 355.067993,327.013000 
	C317.881500,345.382874 308.000641,398.840668 346.135712,425.510315 
	C359.103363,434.579193 373.437958,440.711700 388.227234,445.913269 
	C400.322235,450.167175 412.607849,453.951965 422.909882,462.020782 
	C429.632355,467.286011 429.893677,475.523071 423.214600,480.768921 
	C420.390137,482.987305 417.075439,484.962280 413.664795,485.990784 
	C393.953674,491.934753 377.154724,486.285889 362.078522,472.988159 
	C357.318390,468.789581 351.824036,464.844238 345.968994,462.602905 
	C337.337830,459.298828 328.177216,460.034546 321.201111,466.828522 
	C313.779083,474.056946 312.844391,483.085602 316.639557,492.691742 
	C320.877441,503.418396 328.015991,511.809875 337.302368,518.400208 
	C357.622559,532.821106 380.644318,537.250244 405.057495,536.463684 
	C424.010040,535.853088 440.956848,529.841309 455.631714,517.774048 
	C484.256500,494.235870 488.184601,447.453827 454.065979,422.753082 
	C439.201813,411.991943 422.082825,406.627747 404.984100,401.008759 
	C396.163208,398.110016 387.386261,394.959106 378.892700,391.231201 
	C374.463348,389.287048 371.766083,385.237762 372.486725,379.853088 
	C373.247009,374.172211 376.504364,370.405365 381.821045,368.626862 
	C398.953735,362.895935 415.562195,363.914368 432.111267,373.231964 
M516.862671,324.499969 
	C516.864868,369.165497 516.963806,413.831329 516.813293,458.496338 
	C516.764954,472.859558 519.677124,486.434875 527.311157,498.539917 
	C543.138306,523.636719 566.798035,534.322144 595.840454,533.770325 
	C606.508301,533.567566 614.918274,525.835876 617.458740,515.400208 
	C619.885132,505.433319 615.213745,492.461609 606.557922,487.923981 
	C602.021484,485.545807 596.588501,484.233673 591.443420,483.786102 
	C578.122192,482.627380 569.645996,476.515289 567.496643,465.207458 
	C567.005310,462.622559 567.112915,459.905121 567.111450,457.248596 
	C567.076721,392.583710 567.045044,327.918793 567.075378,263.253906 
	C567.078796,255.875839 564.908264,249.480560 559.456055,244.427017 
	C551.005371,236.594254 541.081116,234.654312 530.811401,239.496872 
	C521.528809,243.874023 516.868530,251.957047 516.891052,262.501709 
	C516.934448,282.834351 516.877808,303.167175 516.862671,324.499969 
M281.097443,372.500000 
	C281.096283,363.338226 281.140594,354.176208 281.083618,345.014771 
	C280.991669,330.239716 270.754181,319.680176 256.625702,319.706573 
	C242.513321,319.732941 231.086685,330.844849 231.070145,344.962372 
	C231.006119,399.599518 231.035507,454.236816 231.136261,508.873901 
	C231.141647,511.799042 231.666519,514.896240 232.717911,517.616394 
	C237.181335,529.164124 248.966095,535.805481 260.622925,533.657776 
	C272.948761,531.386841 281.076935,521.433472 281.084412,508.427368 
	C281.110260,463.451569 281.096252,418.475800 281.097443,372.500000 
M782.511597,909.022522 
	C791.216370,913.985840 798.207886,910.299622 798.776306,900.428223 
	C798.862427,898.933289 798.824463,897.430481 798.824463,895.931335 
	C798.824768,878.938171 798.531311,861.936584 799.019226,844.957520 
	C799.143860,840.618286 800.789795,835.630615 803.393311,832.196777 
	C809.037842,824.752075 818.689331,822.515503 826.793518,825.471863 
	C835.445129,828.627930 840.205688,835.972412 840.222595,846.166748 
	C840.252502,864.159119 840.147705,882.153992 840.467834,900.141296 
	C840.518738,902.999329 841.861572,906.367249 843.727051,908.536133 
	C846.572144,911.843933 850.832825,912.005249 854.805908,910.317871 
	C859.075073,908.504944 860.206726,904.698303 860.211975,900.449890 
	C860.234192,882.457092 859.997986,864.459473 860.386353,846.475037 
	C860.482422,842.024658 861.677612,837.089417 863.925232,833.301208 
	C868.431152,825.706543 878.395935,822.743713 887.307983,825.203369 
	C895.784424,827.542908 901.549011,835.100220 901.791138,845.175415 
	C902.083191,857.330383 901.892517,869.497131 901.901611,881.658752 
	C901.906738,888.489197 901.726868,895.324829 901.939697,902.148499 
	C902.116028,907.802124 905.939331,911.099182 911.806152,911.194397 
	C917.031311,911.279175 921.379883,907.607239 921.403259,902.451843 
	C921.495544,882.128601 921.890808,861.786987 921.192566,841.485962 
	C920.635681,825.296448 911.444275,813.726074 896.981384,807.631287 
	C883.381592,801.900085 869.559937,803.133423 857.176331,812.236816 
	C854.803284,813.981323 852.526489,815.856689 850.931458,817.103821 
	C844.151672,813.209351 838.393433,808.270630 831.764648,806.373108 
	C801.299011,797.652039 778.097046,821.001404 778.757874,845.471069 
	C779.247803,863.616760 778.704407,881.788574 778.970093,899.943726 
	C779.012390,902.834412 780.892517,905.698181 782.511597,909.022522 
M251.904709,891.488037 
	C251.885757,886.823853 252.039734,882.150452 251.793716,877.498291 
	C251.592987,873.702209 252.783493,872.134827 256.843842,872.243896 
	C265.999268,872.489929 275.166107,872.328308 284.328247,872.304199 
	C311.591034,872.232483 335.061920,850.931152 336.924652,824.584595 
	C339.000916,795.218018 319.678589,769.977173 291.352295,766.919250 
	C276.521759,765.318298 261.421143,766.154053 246.441330,766.021301 
	C234.539673,765.915833 231.955414,768.563965 231.954010,780.292664 
	C231.949524,817.774292 231.934219,855.255859 231.932251,892.737488 
	C231.932083,895.901001 231.805374,899.081482 232.078812,902.224365 
	C232.583054,908.020386 236.223251,911.145935 242.053970,911.112122 
	C247.763138,911.079102 251.456085,907.702759 251.801743,901.973450 
	C251.992081,898.818542 251.880066,895.645447 251.904709,891.488037 
M539.697693,817.208435 
	C527.090576,828.716736 520.316589,842.791443 520.906433,860.075195 
	C521.630493,881.293457 531.731140,897.060974 550.239258,906.654175 
	C568.506775,916.122681 586.839417,915.133911 604.050781,903.057983 
	C605.488708,902.049133 606.943054,901.063599 608.501038,899.990601 
	C608.825500,900.839905 608.989319,901.139404 609.054749,901.459045 
	C610.550537,908.767151 613.801147,911.684265 619.891418,911.169128 
	C625.755737,910.673096 629.004822,906.678101 629.004761,899.694946 
	C629.004639,884.373169 629.232849,869.042725 628.803223,853.731628 
	C628.215454,832.788696 609.596558,810.726929 589.173096,806.201172 
	C571.267395,802.233459 554.774597,804.969604 539.697693,817.208435 
M961.818298,847.352539 
	C958.156372,869.243225 964.003662,888.087036 981.974365,901.395386 
	C1003.893494,917.627930 1026.456421,916.698242 1048.169434,900.159180 
	C1048.562744,900.703735 1048.848511,900.925110 1048.894409,901.188293 
	C1050.126221,908.265137 1053.600952,911.531860 1059.583374,911.204956 
	C1065.495361,910.881897 1068.947632,906.842651 1068.974854,899.878357 
	C1069.030884,885.548096 1069.157227,871.214355 1068.922363,856.887512 
	C1068.530029,832.963745 1050.587891,810.837646 1027.701904,805.899048 
	C995.359253,798.919922 968.261047,818.747375 961.818298,847.352539 
M1343.908325,885.450195 
	C1345.822998,879.634033 1349.114624,873.883362 1349.394531,867.989502 
	C1350.239380,850.207520 1350.215332,832.364624 1349.902832,814.556519 
	C1349.768677,806.909790 1341.131836,803.282288 1334.666382,807.461365 
	C1330.775513,809.976257 1330.241211,813.881042 1330.225342,817.973022 
	C1330.169434,832.464417 1330.447998,846.963684 1330.061157,861.445496 
	C1329.639038,877.254028 1318.368652,889.852478 1303.207764,892.281494 
	C1287.669067,894.771057 1273.377441,886.647156 1267.881836,871.800049 
	C1266.585205,868.297424 1266.011841,864.353210 1265.950684,860.598450 
	C1265.725464,846.776367 1266.037964,832.944397 1265.722778,819.125793 
	C1265.644165,815.676208 1264.752075,811.719238 1262.835815,808.969727 
	C1260.405151,805.482361 1256.017944,804.820496 1251.945801,806.465881 
	C1247.837402,808.125793 1245.933228,811.499451 1245.935303,815.957214 
	C1245.942261,831.115295 1245.848633,846.273804 1245.932007,861.431335 
	C1246.057983,884.317139 1261.329224,904.365845 1283.498169,910.548706 
	C1286.905396,911.498901 1287.991089,913.036926 1287.900024,916.446350 
	C1287.704468,923.769348 1287.723389,931.109314 1288.015747,938.427856 
	C1288.116699,940.955444 1288.727783,943.813904 1290.093628,945.862793 
	C1292.546387,949.542419 1296.482788,950.539490 1300.730591,949.218445 
	C1305.184937,947.833313 1307.663574,944.618408 1307.761353,939.984985 
	C1307.929932,931.993408 1307.926514,923.994507 1307.794189,916.002014 
	C1307.745239,913.037842 1308.639771,911.634705 1311.709839,910.829041 
	C1325.787964,907.135010 1336.230957,898.579956 1343.908325,885.450195 
M1137.330933,906.114014 
	C1160.163696,916.878662 1182.605835,914.481323 1199.291626,899.495422 
	C1204.978271,894.388123 1205.863159,888.707520 1201.733765,883.816162 
	C1198.052124,879.455200 1191.899292,879.623840 1186.037964,883.723145 
	C1182.125854,886.459167 1178.042603,889.315125 1173.598633,890.857849 
	C1159.874634,895.622192 1147.857788,891.994751 1138.301514,881.366455 
	C1129.068115,871.097229 1126.404663,858.861328 1131.793335,846.065063 
	C1137.106323,833.448853 1146.524780,825.404236 1161.029541,824.583679 
	C1170.498535,824.048096 1178.646973,826.623291 1185.886841,832.849915 
	C1191.720337,837.866943 1198.213013,837.516846 1202.302490,832.597290 
	C1205.859009,828.318787 1204.439087,821.578003 1199.424194,817.076843 
	C1179.991821,799.635132 1146.011963,800.361084 1126.276611,819.056091 
	C1101.540161,842.488953 1103.309814,886.876404 1137.330933,906.114014 
M716.604248,828.816833 
	C722.262939,827.642334 727.897766,826.331360 733.587524,825.333984 
	C738.665527,824.443848 742.116577,820.532776 742.012390,815.286316 
	C741.903259,809.793457 738.544800,806.257996 733.080872,805.884155 
	C704.071167,803.899231 675.938293,829.002991 675.021973,858.094421 
	C674.571167,872.407776 674.818298,886.746155 674.915833,901.072144 
	C674.959778,907.535645 678.608093,911.078918 684.752380,911.176086 
	C691.019531,911.275208 694.233459,908.080688 694.313416,901.102661 
	C694.452698,888.943481 694.256287,876.780396 694.393494,864.621216 
	C694.574280,848.607178 701.237854,836.417725 716.604248,828.816833 
M229.889847,277.544617 
	C230.506042,278.907166 231.050461,280.307739 231.749710,281.626251 
	C237.571487,292.603607 249.872696,298.138733 262.152161,295.338348 
	C274.201721,292.590393 283.471710,282.026886 283.825104,270.485199 
	C284.192474,258.489044 278.919128,249.565552 268.348694,244.136124 
	C258.235260,238.941452 248.280304,240.037888 239.312103,246.947174 
	C229.389191,254.592010 226.970856,264.948608 229.889847,277.544617 
M483.999268,268.243530 
	C482.634705,250.598114 468.094147,239.509811 450.631073,242.797668 
	C440.371246,244.729340 432.251221,253.007355 429.880829,263.951630 
	C427.578430,274.582123 431.781799,285.596954 440.464508,291.685791 
	C449.718903,298.175537 461.908905,298.876343 470.558838,293.253662 
	C472.625214,291.910461 474.774017,290.357025 476.121979,288.380096 
	C476.855988,287.303619 476.574341,284.586426 475.670258,283.619568 
	C474.838989,282.730560 472.368927,282.676727 470.966705,283.193481 
	C469.173218,283.854492 467.832336,285.641663 466.113403,286.622986 
	C453.469269,293.841431 438.419006,284.252808 438.701508,273.481812 
	C440.228119,273.344055 441.830444,273.075012 443.432861,273.074768 
	C454.925140,273.072906 466.417511,273.109406 477.909637,273.172272 
	C480.901978,273.188629 483.760071,273.142395 483.999268,268.243530 
M409.859528,246.634476 
	C398.973328,239.702408 388.529938,240.718109 377.747803,249.703781 
	C377.747803,241.644791 377.728638,234.888504 377.756805,228.132401 
	C377.768829,225.249008 377.337677,222.375885 373.784882,222.426453 
	C370.419495,222.474335 369.698303,225.090607 369.703369,228.117630 
	C369.738159,248.948441 369.721344,269.779510 369.636871,290.610168 
	C369.624146,293.752747 370.499451,296.012115 373.978241,295.914856 
	C377.313507,295.821594 377.794067,293.348175 377.776428,290.593689 
	C377.730530,283.427856 377.715179,276.261292 377.763855,269.095520 
	C377.840851,257.767120 384.781097,250.192261 395.145386,250.041336 
	C405.333008,249.892975 412.448700,257.596283 412.574310,269.020752 
	C412.653107,276.185699 412.585327,283.352203 412.622742,290.517792 
	C412.636047,293.065887 412.605835,295.911591 416.138184,296.014679 
	C419.777985,296.120880 420.321198,293.476501 420.307159,290.538055 
	C420.270599,282.872955 420.403687,275.204773 420.231354,267.543182 
	C420.045959,259.301758 416.942871,252.337753 409.859528,246.634476 
M314.156860,234.620895 
	C314.166321,246.612457 313.960815,258.608887 314.233093,270.594482 
	C314.700562,291.172424 337.616272,303.947327 355.247894,293.509888 
	C358.234741,291.741760 362.762268,289.598877 360.128052,285.258392 
	C357.542816,280.998535 354.315918,284.790924 351.649231,286.369385 
	C341.507324,292.372589 327.271545,288.337189 323.951385,277.054810 
	C321.555420,268.913055 322.213623,259.872528 321.452423,250.530121 
	C329.770538,250.530121 336.723633,250.573990 343.675720,250.509140 
	C346.569885,250.482147 350.334747,251.235001 350.188660,246.583359 
	C350.046509,242.056625 346.278198,242.871719 343.411713,242.823471 
	C337.751617,242.728180 332.085358,242.683044 326.428223,242.845795 
	C323.178680,242.939270 321.929230,241.673325 322.107147,238.453644 
	C322.272186,235.466888 322.088470,232.460785 322.055756,229.463226 
	C322.027008,226.832367 321.150269,224.315979 318.162231,225.137222 
	C316.560089,225.577545 315.269501,227.955109 314.335999,229.721481 
	C313.780518,230.772598 314.191010,232.334229 314.156860,234.620895 
z"/>
<path fill="#FF8829" opacity="1.000000" stroke="none" 
	d="
M1600.500000,1137.000000 
	C1599.997559,758.635742 1599.994995,380.271484 1599.996338,1.453612 
	C1600.333374,1.166647 1600.943848,1.315896 1600.955566,1.502770 
	C1601.039062,2.830878 1601.000000,4.166667 1601.000000,5.500000 
	C1601.000000,382.666656 1601.000000,759.833313 1600.500000,1137.000000 
z"/>
<path fill="#FEFDFB" opacity="1.000000" stroke="none" 
	d="
M1137.517578,397.540100 
	C1145.053833,371.763336 1159.187134,350.908691 1181.247559,336.310730 
	C1218.418945,311.713531 1257.100342,310.309845 1296.606201,330.884094 
	C1298.470459,331.854980 1300.324707,332.845123 1303.174438,334.349213 
	C1303.174438,331.331146 1303.175415,329.249634 1303.174194,327.168121 
	C1303.161743,305.677765 1303.107666,284.187286 1303.155396,262.697052 
	C1303.176392,253.177216 1307.030518,245.253860 1315.188599,240.469330 
	C1324.037231,235.279724 1333.531372,235.581009 1342.181030,241.296951 
	C1348.564941,245.515610 1352.345581,251.899384 1353.015503,259.580200 
	C1353.549194,265.702393 1353.364624,271.893890 1353.367188,278.054688 
	C1353.387939,326.866241 1353.571167,375.678833 1353.316895,424.489075 
	C1353.097412,466.631683 1334.907959,499.114075 1299.078613,521.308960 
	C1248.613159,552.570312 1178.995239,534.518494 1149.318970,483.155365 
	C1133.747192,456.204193 1130.102417,427.912048 1137.517578,397.540100 
M1184.245483,420.030121 
	C1183.099243,433.151031 1185.503662,445.483246 1192.087158,457.000519 
	C1206.535889,482.276886 1239.058594,494.087402 1268.457520,481.034027 
	C1293.804810,469.779694 1308.671997,438.703644 1300.975220,410.960724 
	C1291.490356,376.772064 1254.133423,357.977722 1221.378784,371.444244 
	C1200.177002,380.160950 1187.757690,396.297516 1184.245483,420.030121 
z"/>
<path fill="#FEFDFB" opacity="1.000000" stroke="none" 
	d="
M670.774536,346.782227 
	C704.390869,316.880127 742.620972,308.920807 784.365173,323.876190 
	C826.925110,339.123779 854.735046,379.421051 855.243896,423.395752 
	C855.571594,451.711731 855.357849,480.034943 855.259399,508.354462 
	C855.194946,526.899353 836.778259,539.349365 820.006287,531.741516 
	C815.637939,529.760010 812.397522,525.154358 808.868713,521.530396 
	C807.543579,520.169434 806.870789,518.173340 805.990662,516.625244 
	C798.245667,520.789062 791.069336,525.430542 783.310425,528.681580 
	C751.378662,542.061096 720.399536,538.737305 690.816895,521.642700 
	C650.517822,498.355560 629.834595,453.607117 637.627991,407.834167 
	C641.715576,383.826416 653.237000,363.875488 670.774536,346.782227 
M736.055481,485.666870 
	C759.749146,489.020782 779.172485,481.271240 793.530273,462.285858 
	C809.752014,440.835846 809.223145,411.091309 793.032593,390.161926 
	C776.828491,369.215027 749.067688,361.654297 723.857849,371.322021 
	C699.284241,380.745789 683.634033,406.428284 686.316772,432.927979 
	C688.934753,458.786896 709.758362,481.171997 736.055481,485.666870 
z"/>
<path fill="#FEFDFB" opacity="1.000000" stroke="none" 
	d="
M1049.954834,663.985413 
	C1049.975586,637.666016 1049.934814,611.843872 1050.043823,586.022339 
	C1050.096558,573.533630 1057.136108,564.554993 1068.844604,561.564636 
	C1079.478027,558.848877 1092.057251,564.311096 1097.158447,574.469849 
	C1098.883789,577.905701 1099.908325,582.077026 1099.935303,585.921448 
	C1100.150757,616.573059 1100.836792,647.251526 1099.876465,677.874695 
	C1098.011719,737.347778 1048.131470,780.596558 992.527344,778.600647 
	C939.184570,776.685974 893.804260,731.904785 893.085876,675.812927 
	C892.703979,645.997742 892.860107,616.174072 892.969543,586.354980 
	C893.023560,571.641052 904.155212,560.964539 918.811890,561.069092 
	C933.094666,561.171082 943.106384,571.427490 943.165894,586.468262 
	C943.279236,615.121826 942.965271,643.778442 943.252502,672.429565 
	C943.469971,694.117065 951.884094,711.884277 971.542786,722.346558 
	C1004.679016,739.981567 1044.261963,719.143494 1049.064697,681.916931 
	C1049.807129,676.163086 1049.679932,670.297058 1049.954834,663.985413 
z"/>
<path fill="#FEFC02" opacity="1.000000" stroke="none" 
	d="
M895.782532,521.032593 
	C894.708740,516.860352 893.098328,513.011719 893.073853,509.153137 
	C892.883545,479.165680 892.714233,449.172729 893.087891,419.188324 
	C893.615051,376.881836 920.155945,338.932404 959.401184,323.538513 
	C1007.756592,304.571136 1064.231323,325.982361 1087.967163,372.222931 
	C1096.030029,387.930542 1100.127197,404.522644 1100.059814,422.212738 
	C1099.949341,451.201721 1100.044800,480.191406 1100.030029,509.180817 
	C1100.022461,523.760803 1089.019531,534.637695 1074.287964,534.686890 
	C1060.554443,534.732849 1050.065186,523.960022 1050.028076,509.531525 
	C1049.953735,480.542328 1050.465576,451.542389 1049.829956,422.566742 
	C1049.320190,399.328400 1039.744263,380.497681 1017.323486,371.349304 
	C985.486816,358.358917 950.042847,375.530853 944.056702,413.333923 
	C943.434937,417.260406 943.201599,421.285187 943.189331,425.265594 
	C943.101868,453.588257 943.234070,481.911926 943.052246,510.233734 
	C942.965210,523.796753 933.340210,533.972168 920.137085,534.511841 
	C909.635864,534.941040 901.472717,530.438232 895.782532,521.032593 
z"/>
<path fill="#FEFDFA" opacity="1.000000" stroke="none" 
	d="
M431.787903,373.052673 
	C415.562195,363.914368 398.953735,362.895935 381.821045,368.626862 
	C376.504364,370.405365 373.247009,374.172211 372.486725,379.853088 
	C371.766083,385.237762 374.463348,389.287048 378.892700,391.231201 
	C387.386261,394.959106 396.163208,398.110016 404.984100,401.008759 
	C422.082825,406.627747 439.201813,411.991943 454.065979,422.753082 
	C488.184601,447.453827 484.256500,494.235870 455.631714,517.774048 
	C440.956848,529.841309 424.010040,535.853088 405.057495,536.463684 
	C380.644318,537.250244 357.622559,532.821106 337.302368,518.400208 
	C328.015991,511.809875 320.877441,503.418396 316.639557,492.691742 
	C312.844391,483.085602 313.779083,474.056946 321.201111,466.828522 
	C328.177216,460.034546 337.337830,459.298828 345.968994,462.602905 
	C351.824036,464.844238 357.318390,468.789581 362.078522,472.988159 
	C377.154724,486.285889 393.953674,491.934753 413.664795,485.990784 
	C417.075439,484.962280 420.390137,482.987305 423.214600,480.768921 
	C429.893677,475.523071 429.632355,467.286011 422.909882,462.020782 
	C412.607849,453.951965 400.322235,450.167175 388.227234,445.913269 
	C373.437958,440.711700 359.103363,434.579193 346.135712,425.510315 
	C308.000641,398.840668 317.881500,345.382874 355.067993,327.013000 
	C385.691589,311.885101 417.012268,313.619080 447.780060,327.129333 
	C457.239258,331.282898 464.750061,338.199127 468.376740,348.501495 
	C472.996307,361.624298 465.349274,376.044128 452.108673,378.898193 
	C444.443146,380.550537 438.087128,377.555969 431.787903,373.052673 
z"/>
<path fill="#FEFEFC" opacity="1.000000" stroke="none" 
	d="
M516.862671,323.999939 
	C516.877808,303.167175 516.934448,282.834351 516.891052,262.501709 
	C516.868530,251.957047 521.528809,243.874023 530.811401,239.496872 
	C541.081116,234.654312 551.005371,236.594254 559.456055,244.427017 
	C564.908264,249.480560 567.078796,255.875839 567.075378,263.253906 
	C567.045044,327.918793 567.076721,392.583710 567.111450,457.248596 
	C567.112915,459.905121 567.005310,462.622559 567.496643,465.207458 
	C569.645996,476.515289 578.122192,482.627380 591.443420,483.786102 
	C596.588501,484.233673 602.021484,485.545807 606.557922,487.923981 
	C615.213745,492.461609 619.885132,505.433319 617.458740,515.400208 
	C614.918274,525.835876 606.508301,533.567566 595.840454,533.770325 
	C566.798035,534.322144 543.138306,523.636719 527.311157,498.539917 
	C519.677124,486.434875 516.764954,472.859558 516.813293,458.496338 
	C516.963806,413.831329 516.864868,369.165497 516.862671,323.999939 
z"/>
<path fill="#FEFDFB" opacity="1.000000" stroke="none" 
	d="
M281.097443,373.000000 
	C281.096252,418.475800 281.110260,463.451569 281.084412,508.427368 
	C281.076935,521.433472 272.948761,531.386841 260.622925,533.657776 
	C248.966095,535.805481 237.181335,529.164124 232.717911,517.616394 
	C231.666519,514.896240 231.141647,511.799042 231.136261,508.873901 
	C231.035507,454.236816 231.006119,399.599518 231.070145,344.962372 
	C231.086685,330.844849 242.513321,319.732941 256.625702,319.706573 
	C270.754181,319.680176 280.991669,330.239716 281.083618,345.014771 
	C281.140594,354.176208 281.096283,363.338226 281.097443,373.000000 
z"/>
<path fill="#FDFBF4" opacity="1.000000" stroke="none" 
	d="
M782.217285,908.798462 
	C780.892517,905.698181 779.012390,902.834412 778.970093,899.943726 
	C778.704407,881.788574 779.247803,863.616760 778.757874,845.471069 
	C778.097046,821.001404 801.299011,797.652039 831.764648,806.373108 
	C838.393433,808.270630 844.151672,813.209351 850.931458,817.103821 
	C852.526489,815.856689 854.803284,813.981323 857.176331,812.236816 
	C869.559937,803.133423 883.381592,801.900085 896.981384,807.631287 
	C911.444275,813.726074 920.635681,825.296448 921.192566,841.485962 
	C921.890808,861.786987 921.495544,882.128601 921.403259,902.451843 
	C921.379883,907.607239 917.031311,911.279175 911.806152,911.194397 
	C905.939331,911.099182 902.116028,907.802124 901.939697,902.148499 
	C901.726868,895.324829 901.906738,888.489197 901.901611,881.658752 
	C901.892517,869.497131 902.083191,857.330383 901.791138,845.175415 
	C901.549011,835.100220 895.784424,827.542908 887.307983,825.203369 
	C878.395935,822.743713 868.431152,825.706543 863.925232,833.301208 
	C861.677612,837.089417 860.482422,842.024658 860.386353,846.475037 
	C859.997986,864.459473 860.234192,882.457092 860.211975,900.449890 
	C860.206726,904.698303 859.075073,908.504944 854.805908,910.317871 
	C850.832825,912.005249 846.572144,911.843933 843.727051,908.536133 
	C841.861572,906.367249 840.518738,902.999329 840.467834,900.141296 
	C840.147705,882.153992 840.252502,864.159119 840.222595,846.166748 
	C840.205688,835.972412 835.445129,828.627930 826.793518,825.471863 
	C818.689331,822.515503 809.037842,824.752075 803.393311,832.196777 
	C800.789795,835.630615 799.143860,840.618286 799.019226,844.957520 
	C798.531311,861.936584 798.824768,878.938171 798.824463,895.931335 
	C798.824463,897.430481 798.862427,898.933289 798.776306,900.428223 
	C798.207886,910.299622 791.216370,913.985840 782.217285,908.798462 
z"/>
<path fill="#FDFBF5" opacity="1.000000" stroke="none" 
	d="
M251.904541,891.984253 
	C251.880066,895.645447 251.992081,898.818542 251.801743,901.973450 
	C251.456085,907.702759 247.763138,911.079102 242.053970,911.112122 
	C236.223251,911.145935 232.583054,908.020386 232.078812,902.224365 
	C231.805374,899.081482 231.932083,895.901001 231.932251,892.737488 
	C231.934219,855.255859 231.949524,817.774292 231.954010,780.292664 
	C231.955414,768.563965 234.539673,765.915833 246.441330,766.021301 
	C261.421143,766.154053 276.521759,765.318298 291.352295,766.919250 
	C319.678589,769.977173 339.000916,795.218018 336.924652,824.584595 
	C335.061920,850.931152 311.591034,872.232483 284.328247,872.304199 
	C275.166107,872.328308 265.999268,872.489929 256.843842,872.243896 
	C252.783493,872.134827 251.592987,873.702209 251.793716,877.498291 
	C252.039734,882.150452 251.885757,886.823853 251.904541,891.984253 
M297.799927,849.494202 
	C311.844055,842.743591 319.675385,827.611145 316.500732,813.358765 
	C312.850372,796.970520 299.827271,786.108765 283.633728,786.005493 
	C274.984711,785.950317 266.322327,786.255249 257.690918,785.857361 
	C253.046249,785.643188 251.682220,787.112915 251.737442,791.666565 
	C251.961258,810.126770 251.855972,828.590820 251.902267,847.053406 
	C251.906677,848.811890 252.121262,850.569885 252.271408,852.825989 
	C262.365753,852.825989 271.995117,853.158142 281.585846,852.693420 
	C286.795807,852.440918 291.940063,850.833069 297.799927,849.494202 
z"/>
<path fill="#FDFAF4" opacity="1.000000" stroke="none" 
	d="
M539.981506,816.996216 
	C554.774597,804.969604 571.267395,802.233459 589.173096,806.201172 
	C609.596558,810.726929 628.215454,832.788696 628.803223,853.731628 
	C629.232849,869.042725 629.004639,884.373169 629.004761,899.694946 
	C629.004822,906.678101 625.755737,910.673096 619.891418,911.169128 
	C613.801147,911.684265 610.550537,908.767151 609.054749,901.459045 
	C608.989319,901.139404 608.825500,900.839905 608.501038,899.990601 
	C606.943054,901.063599 605.488708,902.049133 604.050781,903.057983 
	C586.839417,915.133911 568.506775,916.122681 550.239258,906.654175 
	C531.731140,897.060974 521.630493,881.293457 520.906433,860.075195 
	C520.316589,842.791443 527.090576,828.716736 539.981506,816.996216 
M591.694824,828.606873 
	C579.191895,822.456177 566.956299,822.517273 555.307922,830.600525 
	C544.002136,838.445923 539.308105,849.500122 540.967529,863.039124 
	C542.510559,875.629089 549.619446,884.762268 560.889771,889.882446 
	C572.409058,895.115784 584.025024,894.082153 594.537476,886.568176 
	C614.206360,872.509521 614.620850,843.118347 591.694824,828.606873 
z"/>
<path fill="#FDFAF4" opacity="1.000000" stroke="none" 
	d="
M961.904663,846.930908 
	C968.261047,818.747375 995.359253,798.919922 1027.701904,805.899048 
	C1050.587891,810.837646 1068.530029,832.963745 1068.922363,856.887512 
	C1069.157227,871.214355 1069.030884,885.548096 1068.974854,899.878357 
	C1068.947632,906.842651 1065.495361,910.881897 1059.583374,911.204956 
	C1053.600952,911.531860 1050.126221,908.265137 1048.894409,901.188293 
	C1048.848511,900.925110 1048.562744,900.703735 1048.169434,900.159180 
	C1026.456421,916.698242 1003.893494,917.627930 981.974365,901.395386 
	C964.003662,888.087036 958.156372,869.243225 961.904663,846.930908 
M1048.986816,860.225525 
	C1050.027466,838.498901 1031.034424,819.260376 1005.542236,825.541382 
	C989.928406,829.388489 980.301636,843.630310 980.712158,859.976013 
	C981.097900,875.339783 991.794312,888.280823 1007.330200,892.086182 
	C1025.478760,896.531616 1046.770142,884.199097 1048.986816,860.225525 
z"/>
<path fill="#FDFAF3" opacity="1.000000" stroke="none" 
	d="
M460.803345,853.027283 
	C460.798706,852.283875 460.794037,851.540527 460.757629,850.063599 
	C459.125732,845.336060 458.053314,841.016357 455.827545,837.408203 
	C448.859894,826.113098 435.307373,821.557800 421.691803,825.430176 
	C409.512756,828.893921 400.043579,840.823608 399.881592,853.462463 
	C399.691803,868.270630 399.820465,883.082947 399.832550,897.893494 
	C399.836609,902.896729 399.120117,907.555359 394.328400,910.441406 
	C393.449219,910.664795 392.570038,910.888184 390.983521,911.134033 
	C383.637665,910.358459 380.233185,907.142578 380.222321,901.123230 
	C380.146667,859.213318 380.109894,817.303162 380.230927,775.393555 
	C380.237488,773.120239 381.269135,770.443604 382.706024,768.669373 
	C385.308716,765.455750 389.114594,764.507263 393.106140,765.877563 
	C396.880402,767.173218 399.265839,769.897766 399.353333,774.024475 
	C399.578766,784.656616 399.670441,795.291687 399.792572,805.925842 
	C399.831665,809.329956 399.798676,812.734863 399.798676,817.255920 
	C404.283447,814.101990 407.744507,811.667969 411.205566,809.234009 
	C411.205566,809.234009 411.111725,809.085327 411.442444,809.180786 
	C412.241364,808.932678 412.709534,808.588989 413.177673,808.245361 
	C413.177673,808.245361 413.029510,808.004822 413.493408,808.095459 
	C420.338593,806.908875 426.719849,805.631714 433.101105,804.354492 
	C435.126617,804.539795 437.152130,804.725037 439.926819,805.082275 
	C444.763885,806.494019 448.851746,807.733826 452.939636,808.973633 
	C452.939636,808.973633 452.968506,809.065186 453.187866,809.329590 
	C457.235046,812.072388 461.062897,814.550842 464.890778,817.029236 
	C464.890778,817.029236 464.899536,817.110107 464.999756,817.424316 
	C466.563110,819.279175 468.026184,820.819824 469.489288,822.360535 
	C469.489288,822.360535 469.489471,822.432251 469.602478,822.775391 
	C472.037781,826.792419 474.360107,830.466309 476.682434,834.140137 
	C476.682434,834.140137 476.662537,834.216248 476.696228,834.618286 
	C478.194733,842.666016 479.659485,850.311707 481.124237,857.957397 
	C481.073181,870.668701 481.022156,883.380005 480.906128,896.928406 
	C481.291565,903.603027 479.706818,908.408142 474.052185,911.148743 
	C472.968842,911.147949 471.885529,911.147156 470.056213,911.060730 
	C463.853180,909.826965 461.649017,906.289612 461.660889,900.906677 
	C461.677765,893.248657 461.585876,885.589417 461.442993,877.932434 
	C461.288086,869.629639 461.021332,861.328918 460.803345,853.027283 
z"/>
<path fill="#FDFAF3" opacity="1.000000" stroke="none" 
	d="
M1343.729980,885.772217 
	C1336.230957,898.579956 1325.787964,907.135010 1311.709839,910.829041 
	C1308.639771,911.634705 1307.745239,913.037842 1307.794189,916.002014 
	C1307.926514,923.994507 1307.929932,931.993408 1307.761353,939.984985 
	C1307.663574,944.618408 1305.184937,947.833313 1300.730591,949.218445 
	C1296.482788,950.539490 1292.546387,949.542419 1290.093628,945.862793 
	C1288.727783,943.813904 1288.116699,940.955444 1288.015747,938.427856 
	C1287.723389,931.109314 1287.704468,923.769348 1287.900024,916.446350 
	C1287.991089,913.036926 1286.905396,911.498901 1283.498169,910.548706 
	C1261.329224,904.365845 1246.057983,884.317139 1245.932007,861.431335 
	C1245.848633,846.273804 1245.942261,831.115295 1245.935303,815.957214 
	C1245.933228,811.499451 1247.837402,808.125793 1251.945801,806.465881 
	C1256.017944,804.820496 1260.405151,805.482361 1262.835815,808.969727 
	C1264.752075,811.719238 1265.644165,815.676208 1265.722778,819.125793 
	C1266.037964,832.944397 1265.725464,846.776367 1265.950684,860.598450 
	C1266.011841,864.353210 1266.585205,868.297424 1267.881836,871.800049 
	C1273.377441,886.647156 1287.669067,894.771057 1303.207764,892.281494 
	C1318.368652,889.852478 1329.639038,877.254028 1330.061157,861.445496 
	C1330.447998,846.963684 1330.169434,832.464417 1330.225342,817.973022 
	C1330.241211,813.881042 1330.775513,809.976257 1334.666382,807.461365 
	C1341.131836,803.282288 1349.768677,806.909790 1349.902832,814.556519 
	C1350.215332,832.364624 1350.239380,850.207520 1349.394531,867.989502 
	C1349.114624,873.883362 1345.822998,879.634033 1343.729980,885.772217 
z"/>
<path fill="#FDFAF3" opacity="1.000000" stroke="none" 
	d="
M1137.017456,905.921570 
	C1103.309814,886.876404 1101.540161,842.488953 1126.276611,819.056091 
	C1146.011963,800.361084 1179.991821,799.635132 1199.424194,817.076843 
	C1204.439087,821.578003 1205.859009,828.318787 1202.302490,832.597290 
	C1198.213013,837.516846 1191.720337,837.866943 1185.886841,832.849915 
	C1178.646973,826.623291 1170.498535,824.048096 1161.029541,824.583679 
	C1146.524780,825.404236 1137.106323,833.448853 1131.793335,846.065063 
	C1126.404663,858.861328 1129.068115,871.097229 1138.301514,881.366455 
	C1147.857788,891.994751 1159.874634,895.622192 1173.598633,890.857849 
	C1178.042603,889.315125 1182.125854,886.459167 1186.037964,883.723145 
	C1191.899292,879.623840 1198.052124,879.455200 1201.733765,883.816162 
	C1205.863159,888.707520 1204.978271,894.388123 1199.291626,899.495422 
	C1182.605835,914.481323 1160.163696,916.878662 1137.017456,905.921570 
z"/>
<path fill="#FDFBF4" opacity="1.000000" stroke="none" 
	d="
M716.256226,828.976624 
	C701.237854,836.417725 694.574280,848.607178 694.393494,864.621216 
	C694.256287,876.780396 694.452698,888.943481 694.313416,901.102661 
	C694.233459,908.080688 691.019531,911.275208 684.752380,911.176086 
	C678.608093,911.078918 674.959778,907.535645 674.915833,901.072144 
	C674.818298,886.746155 674.571167,872.407776 675.021973,858.094421 
	C675.938293,829.002991 704.071167,803.899231 733.080872,805.884155 
	C738.544800,806.257996 741.903259,809.793457 742.012390,815.286316 
	C742.116577,820.532776 738.665527,824.443848 733.587524,825.333984 
	C727.897766,826.331360 722.262939,827.642334 716.256226,828.976624 
z"/>
<path fill="#FEFBF7" opacity="1.000000" stroke="none" 
	d="
M229.739883,277.178894 
	C226.970856,264.948608 229.389191,254.592010 239.312103,246.947174 
	C248.280304,240.037888 258.235260,238.941452 268.348694,244.136124 
	C278.919128,249.565552 284.192474,258.489044 283.825104,270.485199 
	C283.471710,282.026886 274.201721,292.590393 262.152161,295.338348 
	C249.872696,298.138733 237.571487,292.603607 231.749710,281.626251 
	C231.050461,280.307739 230.506042,278.907166 229.739883,277.178894 
z"/>
<path fill="#FCF5E7" opacity="1.000000" stroke="none" 
	d="
M483.986084,268.667633 
	C483.760071,273.142395 480.901978,273.188629 477.909637,273.172272 
	C466.417511,273.109406 454.925140,273.072906 443.432861,273.074768 
	C441.830444,273.075012 440.228119,273.344055 438.701508,273.481812 
	C438.419006,284.252808 453.469269,293.841431 466.113403,286.622986 
	C467.832336,285.641663 469.173218,283.854492 470.966705,283.193481 
	C472.368927,282.676727 474.838989,282.730560 475.670258,283.619568 
	C476.574341,284.586426 476.855988,287.303619 476.121979,288.380096 
	C474.774017,290.357025 472.625214,291.910461 470.558838,293.253662 
	C461.908905,298.876343 449.718903,298.175537 440.464508,291.685791 
	C431.781799,285.596954 427.578430,274.582123 429.880829,263.951630 
	C432.251221,253.007355 440.371246,244.729340 450.631073,242.797668 
	C468.094147,239.509811 482.634705,250.598114 483.986084,268.667633 
M439.514252,260.248322 
	C438.956573,262.181274 438.398895,264.114258 437.802612,266.180969 
	C450.951569,266.180969 463.290649,266.180969 475.724091,266.180969 
	C474.196777,257.318542 468.774689,251.858231 460.279388,250.174774 
	C452.337982,248.601089 444.757233,252.103302 439.514252,260.248322 
z"/>
<path fill="#FCF5E7" opacity="1.000000" stroke="none" 
	d="
M410.145264,246.849731 
	C416.942871,252.337753 420.045959,259.301758 420.231354,267.543182 
	C420.403687,275.204773 420.270599,282.872955 420.307159,290.538055 
	C420.321198,293.476501 419.777985,296.120880 416.138184,296.014679 
	C412.605835,295.911591 412.636047,293.065887 412.622742,290.517792 
	C412.585327,283.352203 412.653107,276.185699 412.574310,269.020752 
	C412.448700,257.596283 405.333008,249.892975 395.145386,250.041336 
	C384.781097,250.192261 377.840851,257.767120 377.763855,269.095520 
	C377.715179,276.261292 377.730530,283.427856 377.776428,290.593689 
	C377.794067,293.348175 377.313507,295.821594 373.978241,295.914856 
	C370.499451,296.012115 369.624146,293.752747 369.636871,290.610168 
	C369.721344,269.779510 369.738159,248.948441 369.703369,228.117630 
	C369.698303,225.090607 370.419495,222.474335 373.784882,222.426453 
	C377.337677,222.375885 377.768829,225.249008 377.756805,228.132401 
	C377.728638,234.888504 377.747803,241.644791 377.747803,249.703781 
	C388.529938,240.718109 398.973328,239.702408 410.145264,246.849731 
z"/>
<path fill="#FDF4E3" opacity="1.000000" stroke="none" 
	d="
M314.162048,234.143616 
	C314.191010,232.334229 313.780518,230.772598 314.335999,229.721481 
	C315.269501,227.955109 316.560089,225.577545 318.162231,225.137222 
	C321.150269,224.315979 322.027008,226.832367 322.055756,229.463226 
	C322.088470,232.460785 322.272186,235.466888 322.107147,238.453644 
	C321.929230,241.673325 323.178680,242.939270 326.428223,242.845795 
	C332.085358,242.683044 337.751617,242.728180 343.411713,242.823471 
	C346.278198,242.871719 350.046509,242.056625 350.188660,246.583359 
	C350.334747,251.235001 346.569885,250.482147 343.675720,250.509140 
	C336.723633,250.573990 329.770538,250.530121 321.452423,250.530121 
	C322.213623,259.872528 321.555420,268.913055 323.951385,277.054810 
	C327.271545,288.337189 341.507324,292.372589 351.649231,286.369385 
	C354.315918,284.790924 357.542816,280.998535 360.128052,285.258392 
	C362.762268,289.598877 358.234741,291.741760 355.247894,293.509888 
	C337.616272,303.947327 314.700562,291.172424 314.233093,270.594482 
	C313.960815,258.608887 314.166321,246.612457 314.162048,234.143616 
z"/>
<path fill="#FF8829" opacity="1.000000" stroke="none" 
	d="
M410.828552,809.188782 
	C407.744507,811.667969 404.283447,814.101990 399.798676,817.255920 
	C399.798676,812.734863 399.831665,809.329956 399.792572,805.925842 
	C399.670441,795.291687 399.578766,784.656616 399.353333,774.024475 
	C399.265839,769.897766 396.880402,767.173218 393.106140,765.877563 
	C389.114594,764.507263 385.308716,765.455750 382.706024,768.669373 
	C381.269135,770.443604 380.237488,773.120239 380.230927,775.393555 
	C380.109894,817.303162 380.146667,859.213318 380.222321,901.123230 
	C380.233185,907.142578 383.637665,910.358459 390.664307,911.253174 
	C385.970795,913.802185 378.524689,909.700684 378.442963,904.238647 
	C378.244171,890.948792 378.131073,877.656860 378.108154,864.365540 
	C378.061066,837.052185 378.070068,809.738647 378.131226,782.425354 
	C378.138275,779.281433 378.617493,776.138123 378.887634,772.995361 
	C379.225037,769.070068 380.584015,765.634338 384.798279,764.738953 
	C389.470093,763.746277 394.595581,762.368774 398.180420,767.002747 
	C399.674011,768.933411 400.788544,771.678955 400.865509,774.092468 
	C401.178589,783.909180 400.958801,793.741516 401.080688,803.566345 
	C401.114960,806.328430 401.644836,809.084412 401.979340,812.134277 
	C405.215179,810.992065 407.833374,810.067810 410.828552,809.188782 
z"/>
<path fill="#FF8829" opacity="1.000000" stroke="none" 
	d="
M394.719116,910.551575 
	C399.120117,907.555359 399.836609,902.896729 399.832550,897.893494 
	C399.820465,883.082947 399.691803,868.270630 399.881592,853.462463 
	C400.043579,840.823608 409.512756,828.893921 421.691803,825.430176 
	C435.307373,821.557800 448.859894,826.113098 455.827545,837.408203 
	C458.053314,841.016357 459.125732,845.336060 460.653320,849.704895 
	C458.141083,845.807495 455.883575,841.418274 453.227753,837.284973 
	C445.167999,824.741638 427.371887,822.445068 415.734985,830.245667 
	C406.137238,836.679321 400.933807,845.889404 401.023712,857.793518 
	C401.131866,872.111023 401.175049,886.431458 400.992126,900.747375 
	C400.938629,904.935974 401.098114,909.761963 394.719116,910.551575 
z"/>
<path fill="#FF8829" opacity="1.000000" stroke="none" 
	d="
M460.606110,853.383911 
	C461.021332,861.328918 461.288086,869.629639 461.442993,877.932434 
	C461.585876,885.589417 461.677765,893.248657 461.660889,900.906677 
	C461.649017,906.289612 463.853180,909.826965 469.653564,911.115845 
	C464.563324,912.436584 460.244446,909.656250 460.193481,904.059814 
	C460.040771,887.288757 460.306488,870.513916 460.606110,853.383911 
z"/>
<path fill="#FF8829" opacity="1.000000" stroke="none" 
	d="
M481.337982,857.614502 
	C479.659485,850.311707 478.194733,842.666016 476.732666,834.633057 
	C481.775665,841.202637 482.570740,849.047424 481.337982,857.614502 
z"/>
<path fill="#FF8829" opacity="1.000000" stroke="none" 
	d="
M432.867615,804.083740 
	C426.719849,805.631714 420.338593,806.908875 413.572662,808.213257 
	C418.892487,803.349487 425.502563,802.436035 432.867615,804.083740 
z"/>
<path fill="#FF8829" opacity="1.000000" stroke="none" 
	d="
M474.325531,911.316284 
	C479.706818,908.408142 481.291565,903.603027 480.981812,897.393066 
	C483.584900,905.434570 481.225739,910.664978 474.325531,911.316284 
z"/>
<path fill="#FF8829" opacity="1.000000" stroke="none" 
	d="
M452.874847,808.629517 
	C448.851746,807.733826 444.763885,806.494019 440.364807,805.062683 
	C444.918701,803.719055 449.235779,804.614502 452.874847,808.629517 
z"/>
<path fill="#FF8829" opacity="1.000000" stroke="none" 
	d="
M464.852966,816.690430 
	C461.062897,814.550842 457.235046,812.072388 453.233887,809.316040 
	C456.978790,811.475952 460.897003,813.913818 464.852966,816.690430 
z"/>
<path fill="#FF8829" opacity="1.000000" stroke="none" 
	d="
M476.770752,833.765320 
	C474.360107,830.466309 472.037781,826.792419 469.637329,822.783813 
	C471.992523,826.096252 474.425781,829.743347 476.770752,833.765320 
z"/>
<path fill="#FF8829" opacity="1.000000" stroke="none" 
	d="
M469.544128,822.012268 
	C468.026184,820.819824 466.563110,819.279175 465.040375,817.421814 
	C466.520142,818.624756 468.059570,820.144348 469.544128,822.012268 
z"/>
<path fill="#FF8829" opacity="1.000000" stroke="none" 
	d="
M412.876282,808.233765 
	C412.709534,808.588989 412.241364,808.932678 411.470215,809.264221 
	C411.636475,808.908813 412.105682,808.565491 412.876282,808.233765 
z"/>
<path fill="#FC6B03" opacity="1.000000" stroke="none" 
	d="
M1184.311035,419.586426 
	C1187.757690,396.297516 1200.177002,380.160950 1221.378784,371.444244 
	C1254.133423,357.977722 1291.490356,376.772064 1300.975220,410.960724 
	C1308.671997,438.703644 1293.804810,469.779694 1268.457520,481.034027 
	C1239.058594,494.087402 1206.535889,482.276886 1192.087158,457.000519 
	C1185.503662,445.483246 1183.099243,433.151031 1184.311035,419.586426 
z"/>
<path fill="#FD6B03" opacity="1.000000" stroke="none" 
	d="
M735.633240,485.577759 
	C709.758362,481.171997 688.934753,458.786896 686.316772,432.927979 
	C683.634033,406.428284 699.284241,380.745789 723.857849,371.322021 
	C749.067688,361.654297 776.828491,369.215027 793.032593,390.161926 
	C809.223145,411.091309 809.752014,440.835846 793.530273,462.285858 
	C779.172485,481.271240 759.749146,489.020782 735.633240,485.577759 
z"/>
<path fill="#FB6C06" opacity="1.000000" stroke="none" 
	d="
M297.456940,849.665405 
	C291.940063,850.833069 286.795807,852.440918 281.585846,852.693420 
	C271.995117,853.158142 262.365753,852.825989 252.271408,852.825989 
	C252.121262,850.569885 251.906677,848.811890 251.902267,847.053406 
	C251.855972,828.590820 251.961258,810.126770 251.737442,791.666565 
	C251.682220,787.112915 253.046249,785.643188 257.690918,785.857361 
	C266.322327,786.255249 274.984711,785.950317 283.633728,786.005493 
	C299.827271,786.108765 312.850372,796.970520 316.500732,813.358765 
	C319.675385,827.611145 311.844055,842.743591 297.456940,849.665405 
z"/>
<path fill="#FB6C06" opacity="1.000000" stroke="none" 
	d="
M592.028564,828.767517 
	C614.620850,843.118347 614.206360,872.509521 594.537476,886.568176 
	C584.025024,894.082153 572.409058,895.115784 560.889771,889.882446 
	C549.619446,884.762268 542.510559,875.629089 540.967529,863.039124 
	C539.308105,849.500122 544.002136,838.445923 555.307922,830.600525 
	C566.956299,822.517273 579.191895,822.456177 592.028564,828.767517 
z"/>
<path fill="#FB6C06" opacity="1.000000" stroke="none" 
	d="
M1048.954102,860.666504 
	C1046.770142,884.199097 1025.478760,896.531616 1007.330200,892.086182 
	C991.794312,888.280823 981.097900,875.339783 980.712158,859.976013 
	C980.301636,843.630310 989.928406,829.388489 1005.542236,825.541382 
	C1031.034424,819.260376 1050.027466,838.498901 1048.954102,860.666504 
z"/>
<path fill="#F77214" opacity="1.000000" stroke="none" 
	d="
M439.703247,259.920837 
	C444.757233,252.103302 452.337982,248.601089 460.279388,250.174774 
	C468.774689,251.858231 474.196777,257.318542 475.724091,266.180969 
	C463.290649,266.180969 450.951569,266.180969 437.802612,266.180969 
	C438.398895,264.114258 438.956573,262.181274 439.703247,259.920837 
z"/>
</svg>